<svg xmlns="http://www.w3.org/2000/svg" viewBox="0 0 841.9 595.3">
  <g fill="#61DAFB">
    <path d="M666.3 296.5c0 32.7-26.6 59.3-59.3 59.3-32.7 0-59.3-26.6-59.3-59.3s26.6-59.3 59.3-59.3c32.7 0 59.3 26.6 59.3 59.3z"></path>
    <path d="M520.5 78.1c-13.7-7.9-30.2-12.2-48.6-12.2-27.2 0-55.8 8.5-86 24.7-2.8 1.5-5.6 3-8.4 4.6-2.8-1.6-5.6-3.1-8.4-4.6-30.2-16.2-58.8-24.7-86-24.7-18.4 0-34.9 4.3-48.6 12.2-30.2 17.5-47.7 49.7-47.7 92.3 0 27.1 7.7 56.2 22.3 87.6-14.6 31.4-22.3 60.5-22.3 87.6 0 42.6 17.5 74.8 47.7 92.3 13.7 7.9 30.2 12.2 48.6 12.2 27.2 0 55.8-8.5 86-24.7 2.8-1.5 5.6-3 8.4-4.6 2.8 1.6 5.6 3.1 8.4 4.6 30.2 16.2 58.8 24.7 86 24.7 18.4 0 34.9-4.3 48.6-12.2 30.2-17.5 47.7-49.7 47.7-92.3 0-27.1-7.7-56.2-22.3-87.6 14.6-31.4 22.3-60.5 22.3-87.6 0-42.6-17.5-74.8-47.7-92.3z"></path>
  </g>
</svg>
